<svg width="33" height="33" viewBox="0 0 33 33" fill="none" xmlns="http://www.w3.org/2000/svg">
<path d="M23.3088 0.25H9.69125C3.77625 0.25 0.25 3.77625 0.25 9.69125V23.2925C0.25 29.2238 3.77625 32.75 9.69125 32.75H23.2925C29.2075 32.75 32.7338 29.2238 32.7338 23.3088V9.69125C32.75 3.77625 29.2238 0.25 23.3088 0.25ZM21.96 20.2375C22.4313 20.7087 22.4313 21.4887 21.96 21.96C21.7163 22.2037 21.4075 22.3175 21.0988 22.3175C20.79 22.3175 20.4813 22.2037 20.2375 21.96L16.5 18.2225L12.7625 21.96C12.5188 22.2037 12.21 22.3175 11.9013 22.3175C11.5925 22.3175 11.2838 22.2037 11.04 21.96C10.8133 21.7306 10.6862 21.4212 10.6862 21.0987C10.6862 20.7763 10.8133 20.4668 11.04 20.2375L14.7775 16.5L11.04 12.7625C10.8133 12.5332 10.6862 12.2237 10.6862 11.9012C10.6862 11.5788 10.8133 11.2693 11.04 11.04C11.5113 10.5688 12.2913 10.5688 12.7625 11.04L16.5 14.7775L20.2375 11.04C20.7088 10.5688 21.4888 10.5688 21.96 11.04C22.4313 11.5113 22.4313 12.2912 21.96 12.7625L18.2225 16.5L21.96 20.2375Z" fill="#951D1D"/>
</svg>
