<svg width="26" height="26" viewBox="0 0 26 26" fill="none" xmlns="http://www.w3.org/2000/svg">
<path d="M18.2375 0.5H7.7625C3.2125 0.5 0.5 3.2125 0.5 7.7625V18.225C0.5 22.7875 3.2125 25.5 7.7625 25.5H18.225C22.775 25.5 25.4875 22.7875 25.4875 18.2375V7.7625C25.5 3.2125 22.7875 0.5 18.2375 0.5ZM20.5 13.9375H13.9375V20.5C13.9375 21.0125 13.5125 21.4375 13 21.4375C12.4875 21.4375 12.0625 21.0125 12.0625 20.5V13.9375H5.5C4.9875 13.9375 4.5625 13.5125 4.5625 13C4.5625 12.4875 4.9875 12.0625 5.5 12.0625H12.0625V5.5C12.0625 4.9875 12.4875 4.5625 13 4.5625C13.5125 4.5625 13.9375 4.9875 13.9375 5.5V12.0625H20.5C21.0125 12.0625 21.4375 12.4875 21.4375 13C21.4375 13.5125 21.0125 13.9375 20.5 13.9375Z" fill="#951D1D"/>
</svg>
